<?xml version="1.0" encoding="UTF-8"?>
<svg version="1.1" viewBox="0 0 1600 1600" width="100" height="100" xmlns="http://www.w3.org/2000/svg">
<path transform="translate(553,93)" d="m0 0h574l17 1 7 2 11 11 9 11 15 16 12 13 22 24 14 15 9 10 9 11 8 8 7 8 10 11 9 11 8 8 7 8 16 17 18 20 12 13 13 14 9 11 9 9 7 8 11 12 9 11 7 7 7 8 15 16 7 8 12 13 7 7 7 8 12 12 7 8 11 12 7 8 11 12 9 10 8 10 8 11 3 6v710l-2 30-3 18-6 23-6 16-9 19-10 15-9 12-11 13-13 13-14 11-15 10-25 12-21 7-22 5-26 3-20 1-552 1h-118l-3-1 1-5 8-14 4-12 2-9 1-9v-15l-4-17-5-13-7-13-9-12-5-5v-2l-4-2-8-8-25-20-11-9-14-11-16-13-14-11-48-39-16-12-18-13-18-10-12-5-14-3h-25l-17 4-25 9-5 1-2-3-1-8 1-179v-701l2-28 4-20 6-18 9-20 10-17 9-13 10-12 7-8 3-4h2l1-3 8-7 15-12 14-9 18-10 14-6 13-4 25-5zm648 142 1 87 1 116 4 16 6 8 7 5 17 5 18 2h157l8 1-2-4-12-14-16-17-12-14-12-13-7-8-22-24-7-8-11-12-7-8-18-20-12-13-15-16-13-14-7-8-13-15-11-12-7-8-9-9-4-3z" fill="#232123"/>
<path transform="translate(553,494)" d="m0 0h50l173 1 6 3 2 8v8l-3 10-7 4-24 2-15 5-15 8-4 3-7 20-2 40-2 26-1 43-1 22v268l2 28 2 8 1 12 2 6 3 8 6 11 5 6v2l4 2 9 7 8 4 20 6 27 4 12 1 3 1 32 1h23l42-2 22-3 17-4 12-5 11-5 15-9 10-9 3-5h2l1-4h2l2-5 6-11 8-17 5-14 2-6 2-9 6-11 2-2h9l9 1v2l6 1 1-9 7-40 4-23 3-20 8-48 15-84 6-32 9-55 7-36 7-39 6-25 6-29 2-2 17-3 9-1 27-1h43l23 1 11 4 6 8 8 29 7 29 7 35 9 39 11 54 6 29 10 58 6 34 10 62 7 38 5 29 6 34 1 9v11l-6 3-14 2-19-1-27-3-9-3-6-5-4-8-4-13-8-44-6-39-8-36-2-5h-82l-3 3-1 2-3 21-12 68-10 58-3 3-7 2h-36l-22-2-13-2h-6l-2 19-1 16-2 9h-2v33l-1 16-2 4-19 1-67 1-114 1h-304l-8-4-3-4-2-10 1-9 4-5 11-3 26-3 21-6 13-8 2-3h2l1-5 4-10 2-9h2l1-17 1-11 1-37v-327l-1-48-3-21-3-13-7-14-2-2-4-1v-2l-6-2-16-5-29-5-6-3-5-10v-8l4-8 7-4z" fill="#009789"/>
<path transform="translate(553,494)" d="m0 0h50l173 1 6 3 2 8v8l-3 10-7 4-24 2-15 5-15 8-4 3-7 20-2 40-2 26-1 43-1 22v268l2 28 2 8 1 12 2 6 3 8 6 11 5 6v2l4 2 9 7 8 4 20 6 27 4 12 1 3 1 32 1h23l42-2 22-3 17-4 12-5 11-5 15-9 10-9 3-5h2l1-4h2l2-5 6-11 8-17 5-14 2-6 2-9 6-11 2-2h9l9 1v2l6 2v18l-2 21-1 21-1 1-2 39h-2v33l-1 16-2 4-19 1-67 1-114 1h-304l-8-4-3-4-2-10 1-9 4-5 11-3 26-3 21-6 13-8 2-3h2l1-5 4-10 2-9h2l1-17 1-11 1-37v-327l-1-48-3-21-3-13-7-14-2-2-4-1v-2l-6-2-16-5-29-5-6-3-5-10v-8l4-8 7-4z" fill="#E6FCB9"/>
<path transform="translate(409,1212)" d="m0 0h7l13 4 18 10 14 10 28 22 13 11 13 10 16 13 17 13 11 9 14 11 11 10 9 7 15 14 8 8 7 10 5 11 1 5v14l-4 11-9 14-14 14-13 10-17 12-10 8-9 7-12 10-16 12-19 14-21 16-20 15-19 14-16 9-10 5-7 2-6-1-2 2-6-1-13-7-13-10-10-11-8-14-1-4v-15l4-12 10-16 4-5 8-7 9-8 28-21 16-13 17-13 18-13 11-8 3-3-2-5-10-9-17-13-13-10-12-9-13-11-8-7-13-11-10-9-14-14-8-11-4-8-1-4v-13l4-14 8-16 11-10 14-8 7-2z" fill="#232123"/>
<path transform="translate(238,1212)" d="m0 0h14l13 4 11 6 11 9 8 11 5 10 3 12v11l-5 12-8 11-7 7-5 6-11 9-8 7-11 9-10 9-10 8-13 10-9 7-19 14-11 8-2 3 10 8 14 10 32 24 19 14 8 6 16 13 11 10 7 8 9 13 4 10 1 4v8l-4 14-6 12-8 10-8 8-10 5-17 5-6-1-4 1-12-5-18-11-16-12-14-10-13-10-11-9-12-9-21-16-18-14-14-11-18-14-13-10-15-13-8-10-4-7-2-11-1-14 3-12 9-16 12-13 10-9 11-8 18-14 12-10 9-7 14-12 33-27 12-9 28-22 15-11 14-7z" fill="#232123"/>
<path transform="translate(1205,605)" d="m0 0h2l4 8 8 42 5 27 13 65 4 19v11l-1 1h-52l-9-2-1-1 1-10 8-44 7-46 9-59 1-9z" fill="#232123"/>
<path transform="translate(1537,523)" d="m0 0 3 3 3 6v710l-2 30-3 18-6 23-1-4 4-18 1-2 1-15z" fill="#767570"/>
<path transform="translate(354,1316)" d="m0 0h5l5 5 3 6v8l-6 27-11 42-7 28-10 35-3 10-7 8-8-1-4-5-2-4 1-9 7-24 6-26 8-29 13-53 4-11z" fill="#076F7E"/>
<path transform="translate(592,1067)" d="m0 0 2 1-4 3-27 9-22 5-7 1-1 4 2 7 5 4 4 1 14 1 159 1 46 1h224l43 1 16 1-1 2-19 1-67 1-114 1h-304l-8-4-3-4-2-10 1-9 4-5 11-3 26-3 21-6z" fill="#ACBB99"/>
<path transform="translate(573,1073)" d="m0 0 4 1-9 3-31 4-5 3-1 9 3 11 4 3 11 1h378l119-1-1 2-19 1-67 1-114 1h-304l-8-4-3-4-2-10 1-9 4-5 11-3 26-3z" fill="#767570"/>
<path transform="translate(553,494)" d="m0 0h50l173 1 6 3 2 8v8l-2 6h-1v-16l-1-5-188 2-22 1h-16l-11-2-2 4-1-2 5-5z" fill="#ABBA99"/>
<path transform="translate(662,1440)" d="m0 0 10 3 5 2h20l35 1h51l32 1h17l14 1 313 1v1l-380 1h-118l-3-1 1-5z" fill="#54575B"/>
<path transform="translate(714,548)" d="m0 0 1 2-6 16-2 40-2 26-1 43-1 22v268l2 28 2 8v8h-1l-1-7-2-6-2-17-1-22v-354l1-19 4-20 2-5h2l1-6z" fill="#97A089"/>
<path transform="translate(527,1089)" d="m0 0h1l3 15 5 5 5 2h312l186-2v1l-17 2-59 1-94 1h-322l-10-2-5-3-3-4-2-10z" fill="#3D424D"/>
<path transform="translate(1273,524)" d="m0 0 2 3 13 52 7 35 9 39 11 54 6 29 10 58 6 34 10 62 7 38 5 29 6 34 1 9v11l-6 3-14 2-19-1-27-3-9-3-1-2 4 1 19 3 12 1h32l6-1-1-20-9-53-3-19-2-10-7-39-4-24-3-22-3-17-3-14-3-19-7-41-6-27-5-25-6-29-3-13-12-57-4-16-5-18-4-20z" fill="#046E7E"/>
<path transform="translate(1542,584)" d="m0 0h1v658h-1l-1-135v-422-3-5l-1-2h2l-2-6 1-3-1-1v-5h2v-2h-2l-1-5 1-1-2-9v-17l3-5h-2l-1-4v-8h2l1-4z" fill="#ADBC9A"/>
<path transform="translate(604,543)" d="m0 0 5 5 5 11 4 17 2 17 1 48v327l-1 37-3 28h-1v-15l1-15 1-156v-222l-1-26-3-29-4-14-5-10z" fill="#777671"/>
<path transform="translate(1201,240)" d="m0 0h1l1 82 1 116 3 15-4-1-2-4-1-8-1-19-1-70v-42l2-64z" fill="#A4B193"/>
<path transform="translate(1174,856)" d="m0 0h51l29 1 2 1 5 22v5l-2-4-5-21-1-1h-82l-3 3-1 2-3 21-12 68-10 58-3 3-7 2h-36l-22-2-13-2h-6l-2 19-1 16-1 5h-1l1-35 1-1 1-8 28 4 49 1 10-2 1-13 6-32 8-47 5-30 3-13v-10l5-8z" fill="#046E7E"/>
<path transform="translate(1114,619)" d="m0 0h1v7l-7 36-6 40-5 28-5 25-7 44-7 40-4 25-2 14-3 19-3 15-8 45-3-1 5-26 6-37 6-35 7-43 15-84 6-32 9-55z" fill="#046E7E"/>
<path transform="translate(620,834)" d="m0 0h1l2 56 1 30v71l-3 32-4 16h-2l-1 8-5 9-1-2 5-12 2-9h2l1-17 1-11 1-37z" fill="#ABB998"/>
<path transform="translate(1537,523)" d="m0 0 3 3 3 6v52l-1 21-1 5h-2v11h2l-2 6v16l-2 1z" fill="#777771"/>
<path transform="translate(1226,469)" d="m0 0 11 2 18 2h141l11 1-1 2-28 1h-35l-32-1-65-1-17-3z" fill="#54575B"/>
<path transform="translate(277,1306)" d="m0 0h5l-4 5-11 9-8 7-11 9-10 9-10 8-13 10-9 7-16 12h-2l3-6h2v-2l6-4 15-12h2v-2l8-7 10-6 3-3h2v-2h2l1-4 10-6 5-2v-2l8-7 7-8 5-1z" fill="#575B5E"/>
<path transform="translate(714,548)" d="m0 0 1 2-6 16-2 40-2 26-1 43-1 22h-1v-102l1-14 3-16 4-12z" fill="#595B5E"/>
<path transform="translate(619,847)" d="m0 0h1l1 87v34l-1 37-3 28h-1v-15l1-15 1-155z" fill="#777671"/>
<path transform="translate(553,494)" d="m0 0h50l173 1v1l-71 1h-109l-51 1 4-3z" fill="#777671"/>
<path transform="translate(299,1536)" d="m0 0 2 1-6 12-8 10-8 8-10 5-17 5-6-1-4 1-12-5-3-3 4-1 9 3 10 1 7-2v-2h8l8-3 7-3 5-5 1-7h2v-2l5-5z" fill="#4C5056"/>
<path transform="translate(624,1413)" d="m0 0 1 2-9 14-14 14-13 10-17 12-10 8-9 7-3 2 1-4 10-9h2l2-4 6-5h2l1-4 6-1 7-5h2l2-4 4-5 5-4 5-3 5-5 2-4h2l2-4 4-2z" fill="#646A67"/>
<path transform="translate(1502,1367)" d="m0 0v3l-9 11-9 10-10 10-14 11-15 10-25 12-2-1 10-7 12-5 10-8 9-6 5-4 3-3h2l1-3 4-2 5-5h2v-2l5-3 4-2 2-5z" fill="#5F6463"/>
<path transform="translate(1201,240)" d="m0 0h1l1 82v88h-1l-1-44-1-1-1-30 1-56z" fill="#E7FDBD"/>
<path transform="translate(1141,1006)" d="m0 0h1l-1 7-9 3h-36l-22-2-13-2h-6l-2 19-1 16-1 5h-1l1-35 1-1 1-8 28 4 49 1 10-2z" fill="#046E7E"/>
<path transform="translate(617,860)" d="m0 0h1v143l-2 30h-1v-67l1-76z" fill="#3D424D"/>
<path transform="translate(363,1347)" d="m0 0 1 2-12 48-8 31h-1l1-9 7-39 2-11v-7l2-1 2-4 2-1 2-6z" fill="#20A08D"/>
<path transform="translate(612,562)" d="m0 0 2 3 3 21 1 13 1 26v94h-1l-1-55-1-22-2-63z" fill="#3D424D"/>
<path transform="translate(543,1485)" d="m0 0 3 1-13 10-19 14-21 16-8 5 2-5 9-9 7-2 3-3 1-3 4-3 1-2h4l5-6 9-6 3-3z" fill="#515559"/>
<path transform="translate(1542,584)" d="m0 0h1v75l-3-1-1-5 1-1-2-9v-17l3-5h-2l-1-4v-8h2l1-4z" fill="#ACBB99"/>
<path transform="translate(352,992)" d="m0 0h1l1 176 1 11 4 2-5 1-2-3-1-8z" fill="#7E8678"/>
<path transform="translate(332,1463)" d="m0 0 1 4-3 10-7 8-8-1-4-5 1-2 6-2 2-5h6l1-3 4-2z" fill="#0F9688"/>
<path transform="translate(231,1345)" d="m0 0 1 3-2 1-3 5-19 14-11 9-7 5h-2l3-6h2v-2l6-4 15-12h2v-2l8-7z" fill="#505559"/>
<path transform="translate(604,543)" d="m0 0 5 5 5 11 4 17 2 17v48h-1l-2-42-3-29-4-14-5-10z" fill="#767570"/>
<path transform="translate(383,1565)" d="m0 0 4 1 4-1 5 3 5 1 4 3 13 1 2 2-7 2-6-1-2 2-6-1-13-7-4-4z" fill="#474C53"/>
<path transform="translate(399,1165)" d="m0 0h25l20 4 3 2v2l-11-3-10-2h-25l-17 4-8 3-3-1 4-2 4-4z" fill="#84877B"/>
<path transform="translate(581,1454)" d="m0 0m-1 1 1 4-10 7-13 10-8 6 1-4 10-9h2l2-4 6-5h2l1-4z" fill="#4C5156"/>
<path transform="translate(1053,1008)" d="m0 0 28 4 1 2h-8l-13-2h-6l-2 19-1 16-1 5h-1l1-35 1-1z" fill="#43777A"/>
<path transform="translate(1502,1367)" d="m0 0v3l-9 11-9 10-10 10-14 11h-3l2-3 4-2 1-2 5-3 13-12 6-7h2l2-5z" fill="#C1D1A7"/>
<path transform="translate(277,1306)" d="m0 0h5l-4 5-11 9-8 7-3 1 1-4 8-7 7-8 5-1z" fill="#4D5257"/>
<path transform="translate(624,1413)" d="m0 0 1 2-9 14-12 12-1-4 4-4h2l2-6 1-2h2l2-4 4-2z" fill="#70776E"/>
<path transform="translate(573,1073)" d="m0 0 4 1-9 3-31 4-5 3-2 4-1-3 4-5 11-3 26-3z" fill="#777671"/>
<path transform="translate(1481,1388)" d="m0 0 3 1-10 10-7 6h-3l-2 4h-3l-2 4-3-1 8-8 5-4h2l1-3 4-2 5-5h2z" fill="#494C54"/>
<path transform="translate(457,1550)" d="m0 0 2 1-13 10-16 9h-2v-2h3l2-4h2l1-3 9-1 1-3 3-3h4v-2z" fill="#4A4F55"/>
<path transform="translate(1525,1325)" d="m0 0h2l-2 6-8 17-10 15-2 1 2-6 1-2h2l2-5 1-3h2l1-5 8-16z" fill="#5E6362"/>
<path transform="translate(628,1390)" d="m0 0h1v14l-3 9-5 4 1-6 4-2-1-10z" fill="#52575A"/>
<path transform="translate(301,1259)" d="m0 0h1l1 5v11l-2 3-4-3v-6l3-4z" fill="#4F5358"/>
<path transform="translate(499,1516)" d="m0 0 2 1v3l-15 11-1-2 4-5 7-7z" fill="#444851"/>
<path transform="translate(377,1169)" d="m0 0 2 1-4 4h-2v2l-5 2-4-1 1-5z" fill="#51555A"/>
<path transform="translate(364,1322)" d="m0 0 2 2 1 3v8l-2 10-2-1v-13z" fill="#4FAF98"/>
<path transform="translate(476,1535)" d="m0 0 4 1-16 12-1-3h2l1-5 5-2h3v-2z" fill="#595F60"/>
<path transform="translate(780,522)" d="m0 0v3l-6 3-16 1 1-2 18-4z" fill="#909985"/>
<path transform="translate(1502,1367)" d="m0 0v3l-9 11-7 8h-2l2-4 4-2 2-5z" fill="#B2BE9D"/>
<path transform="translate(1455,1410)" d="m0 0m-1 1m-2 1 5 1-4 4-11 6v-2h2l2-4z" fill="#646A66"/>
<path transform="translate(563,1467)" d="m0 0 2 4-11 8-4 3 1-4 10-9h2z" fill="#4E5258"/>
<path transform="translate(202,1370)" d="m0 0 3 1-15 11h-2l3-6h2v-2z" fill="#6C716B"/>
<path transform="translate(1060,936)" d="m0 0h1l-1 10-2 11-3-1 4-19z" fill="#066E7D"/>
<path transform="translate(539,504)" d="m0 0h1l1 11 4 9 1 2-4-2-4-9v-8z" fill="#8D9382"/>
<path transform="translate(624,1413)" d="m0 0 1 2-9 14-5 4 2-4z" fill="#D6E2C3"/>
<path transform="translate(388,1168)" d="m0 0h7l-4 2-15 5-3-1 7-4z" fill="#B8C9A0"/>
<path transform="translate(1202,439)" d="m0 0h2l3 14-4-1-1-5z" fill="#AAB797"/>
<path transform="translate(428,1166)" d="m0 0 16 3 3 2v2l-11-3-8-2z" fill="#6F736D"/>
<path transform="translate(782,504)" d="m0 0 2 2v8l-2 6h-1v-11z" fill="#8C9482"/>
<path transform="translate(293,1289)" d="m0 0 3 1-8 10-1-4z" fill="#51565A"/>
<path transform="translate(1481,1388)" d="m0 0 3 1-10 10-2-1 4-6 5-2z" fill="#54575B"/>
<path transform="translate(457,1550)" d="m0 0 2 1-12 9v-3l2-3h4v-2z" fill="#53585B"/>
<path transform="translate(714,548)" d="m0 0 1 2-4 10h-2l-1 2 2-9z" fill="#5D5F61"/>
<path transform="translate(229,1568)" d="m0 0 8 2 2 3-9-1-3-3z" fill="#444952"/>
<path transform="translate(1415,468)" d="m0 0 5 2 3 2v2h-2v2h-6l-1-2 6 1z" fill="#484E54"/>
<path transform="translate(616,1421)" d="m0 0 3 1-7 9-2-3 2-3h2z" fill="#4D5057"/>
<path transform="translate(1513,1350)" d="m0 0 2 1-8 12-2 1 2-6 1-2h2l2-5z" fill="#888E7D"/>
<path transform="translate(479,1400)" d="m0 0v3l-5 5-4-1z" fill="#929B87"/>
</svg>
